<svg width="65" height="64" viewBox="0 0 65 64" fill="none" xmlns="http://www.w3.org/2000/svg">
<g clip-path="url(#clip0_1689_2770)">
<path d="M15.4998 42.4033V62.1237C15.4998 63.9205 17.7973 64.6861 18.8744 63.248L28.5075 50.4069L31.444 48.9022L63.2396 3.94625L63.831 0.4505L58.6649 3.30538L15.4893 40.786L15.4998 42.4033Z" fill="#919EAB"/>
<path d="M61.9046 0.149353C61.82 0.183228 1.61662 30.4101 1.53487 30.4511C0.221998 31.1075 0.141248 32.9541 1.39025 33.725L15.4985 42.4079L63.8297 0.455103C63.3384 0.0293535 62.6327 -0.152397 61.9046 0.149353Z" fill="#C4CDD5"/>
<path d="M63.8957 0.5425C63.8687 0.516125 63.8598 0.47525 63.8313 0.4505L63.4644 0.9705L28.5078 50.4067L50.1417 63.7204C51.2684 64.413 52.7267 63.7526 52.9671 62.4697L64.4697 2.22113C64.5919 1.58525 64.3342 0.969375 63.8957 0.5425Z" fill="#C4CDD5"/>
</g>
<defs>
<clipPath id="clip0_1689_2770">
<rect width="64" height="64" fill="white" transform="translate(0.5)"/>
</clipPath>
</defs>
</svg>
