<svg width="64" height="64" viewBox="0 0 64 64" fill="none" xmlns="http://www.w3.org/2000/svg">
<g clip-path="url(#clip0_1689_1041)">
<path d="M36.7493 27.2508H23.4911L16.862 39.1831L15.5362 40.5089C13.3353 42.7098 13.3353 46.2629 15.5362 48.4639C17.737 50.6646 21.2902 50.6648 23.4912 48.4639L24.817 47.1381L36.7493 40.509V27.2508ZM14.5611 35.7225C15.1722 35.606 15.6836 35.1956 15.9308 34.6245C17.3188 31.4188 20.4042 26.6916 24.1862 21.98C24.5695 21.5009 24.6951 20.8653 24.5202 20.2761C24.1623 19.0635 22.9976 18.9703 22.7581 18.8429C22.3891 18.7199 13.6042 15.9245 4.92933 24.5994C-1.62467 31.1534 2.11583 35.0441 2.2777 35.206C3.01058 35.9389 4.19658 35.9389 4.92933 35.206C7.1227 33.0128 10.691 33.0128 12.8843 35.206C13.3232 35.6448 13.9512 35.8378 14.5611 35.7225ZM43.7241 39.4799C43.135 39.3051 42.4992 39.4306 42.0202 39.8139C37.1442 43.7266 32.5426 46.733 29.3912 48.0614C28.8163 48.3048 28.3995 48.8175 28.279 49.4299C28.1611 50.0423 28.3528 50.6741 28.7943 51.1156C30.9876 53.3089 30.9876 56.8773 28.7943 59.0706C28.0615 59.8035 28.0615 60.9895 28.7943 61.7223C28.9562 61.884 32.847 65.6246 39.401 59.0706C48.0758 50.3958 45.2805 41.6109 45.1575 41.2445C45.0358 41.0161 44.934 39.8351 43.7241 39.4799ZM63.7961 1.79501C63.6636 0.973007 63.0272 0.336632 62.205 0.203882C61.7278 0.150757 54.6478 -0.777243 45.7913 1.82126L51.2737 12.6069L62.1786 18.2085C64.7772 9.35213 63.8491 2.27213 63.7961 1.79501ZM39.401 13.9925C36.4841 16.9094 36.4841 21.6823 39.401 24.5991C42.3442 27.5424 47.0907 27.516 50.0076 24.5991C52.9508 21.6559 52.9508 16.9358 50.0076 13.9925C47.0907 11.0756 42.3443 11.0493 39.401 13.9925Z" fill="#919EAB"/>
<path d="M45.7915 1.82134C39.9844 3.49209 33.4349 6.70047 27.4687 12.6667C25.5064 14.629 23.3584 17.042 21.2637 19.6138C17.2862 24.599 13.9982 29.6372 12.5133 33.1373C12.195 33.8268 12.3277 34.6488 12.8845 35.2057L16.862 39.1832L26.1428 29.9023C28.3437 27.7015 31.8968 27.7015 34.0978 29.9023C36.325 32.1296 36.325 35.63 34.0978 37.8573L24.817 47.1381L28.7945 51.1156C29.3248 51.6458 30.1468 51.8315 30.8362 51.5133C34.3098 50.055 39.242 46.8728 44.3862 42.7363C46.958 40.6416 49.3713 38.4937 51.3334 36.5316C57.2997 30.5653 60.508 24.0158 62.1785 18.2086L45.7915 1.82134ZM50.0077 24.5991C47.0908 27.516 42.3444 27.5423 39.401 24.5991C36.4842 21.6822 36.4842 16.9093 39.401 13.9925C42.3443 11.0492 47.0908 11.0756 50.0077 13.9925C52.9509 16.9357 52.9509 21.6558 50.0077 24.5991ZM12.909 51.1171C12.1762 50.3843 10.9903 50.3843 10.2574 51.1171L0.549656 60.7987C-0.183219 61.5316 -0.183219 62.7176 0.549656 63.4503C1.28253 64.1831 2.46853 64.1832 3.20128 63.4503L12.909 53.7687C13.6419 53.0358 13.6419 51.8498 12.909 51.1171ZM15.5607 56.4203L12.909 59.072C12.1762 59.8048 12.1762 60.9908 12.909 61.7236C13.6419 62.4565 14.8279 62.4565 15.5607 61.7236L18.2123 59.072C18.9452 58.3392 18.9452 57.1531 18.2123 56.4203C17.4794 55.6876 16.2935 55.6876 15.5607 56.4203ZM4.95403 51.1171L7.60566 48.4655C8.33853 47.7326 8.33853 46.5466 7.60566 45.8138C6.87278 45.081 5.68678 45.081 4.95403 45.8138L2.30241 48.4655C1.56953 49.1982 1.56953 50.3843 2.30241 51.1171C3.03528 51.8498 4.22128 51.8498 4.95403 51.1171Z" fill="#C4CDD5"/>
</g>
<defs>
<clipPath id="clip0_1689_1041">
<rect width="64" height="64" fill="white"/>
</clipPath>
</defs>
</svg>
